<svg width="471" height="155" viewBox="0 0 471 155" fill="none" xmlns="http://www.w3.org/2000/svg">
<path d="M116.958 21.7734C116.958 26.277 120.666 29.9512 125.221 29.9512H152.039C159.726 29.9512 166.736 34.5224 169.885 41.5996L190.54 87.8721L209.909 41.9717C212.991 34.6746 220.068 29.9679 227.924 29.9678H246.565V0H268.965V21.7734C268.965 26.277 272.673 29.9512 277.228 29.9512H292.516V48.2363H268.981V91.377L268.948 91.3594C268.948 100.147 271.217 102.416 279.987 102.416H291.72V121.142H269.795C254.591 121.142 246.548 113.082 246.548 97.8613V48.2363H235.238C232.699 48.2363 230.819 49.2689 229.938 51.165L201.038 113.557L200.953 121.087C200.953 137.51 192.047 147.719 177.707 147.719H140.492V128.654H168.632C177.199 128.654 179.671 128.265 179.671 119.309V114.64L149.533 51.1143C148.653 49.2691 146.79 48.2363 144.268 48.2363H116.958V91.377C116.958 100.164 119.227 102.433 127.997 102.433H139.087V121.158H117.805C102.601 121.158 94.5586 113.099 94.5586 97.8779V0H116.958V21.7734ZM43.208 0C68.6045 1.80899e-05 81.7594 10.0909 83.3848 30.8145H59.8516C58.7341 21.6548 53.1804 17.1846 42.9033 17.1846C33.3204 17.1846 26.6328 22.9419 26.6328 31.9492C26.6329 40.9561 30.442 45.0704 41.1758 47.627L41.1592 47.6436L55.2119 51.0469C75.8847 56.1262 85.1123 66.285 85.1123 83.9609C85.1123 107.613 69.0108 121.175 42.9033 121.175C16.7957 121.175 1.96404 109.205 0 86.5176H22.6025C24.0417 97.9121 31.1702 103.686 42.9033 103.686C54.6363 103.685 62.2216 97.3364 62.2217 87.5166C62.2217 78.2553 57.5314 73.5993 45.5273 70.9072L31.3389 67.6562C18.7423 64.6424 3.74219 56.4814 3.74219 34.5898C3.7423 13.9003 19.6063 0 43.208 0ZM410.754 0V42.0059L412.261 40.1602H412.244C417.476 33.7773 422.792 30.0693 434.593 30.0693C454.538 30.0693 466 42.5988 466 64.4736V121.158H443.601V67.2666C443.601 60.4944 441.67 55.1108 438.013 51.6738C435.067 48.8971 431.105 47.5934 426.567 47.8643C415.782 48.5416 410.754 56.9222 410.754 74.2764V121.158H388.354V0H410.754ZM338.838 30.0518C362.829 30.0518 377.119 41.1754 379.168 61.374H356.954C355.278 52.7901 349.725 48.794 339.566 48.7939H338.094C324.752 48.7939 316.117 59.3253 316.117 75.5957C316.117 91.8664 324.735 102.398 338.094 102.398H339.566C349.725 102.398 355.261 98.4022 356.954 89.8184H379.168C377.119 110.034 362.829 121.141 338.838 121.141C313.425 121.14 295.682 102.414 295.682 75.5957C295.682 48.7774 313.425 30.052 338.838 30.0518Z" fill="#1D1D1D"/>
</svg>
